# xmcd
#
# Track frame offsets:
#	150
#	12734
#	29247
#	53994
#	68249
#	80385
#	91423
#	105993
#	121303
#	148744
#	164634
#	183007
#
# Disc length: 2750 seconds
#
# Revision: 0
# Processed by: cddbd v1.4PL0 Copyright (c) Steve Scherf et al.
# Submitted via: dBpowerAMP V4.0
#
DISCID=a60abc0c
DTITLE=the griswolds - the later it gets,the better i feel
DYEAR=2002
DGENRE=Blues
TTITLE0=01what she did
TTITLE1=02got in trouble
TTITLE2=03wash my blues away
TTITLE3=04rose ball,rise ball
TTITLE4=05baby
TTITLE5=06tearin' it up
TTITLE6=07the later it gets,the better i feel
TTITLE7=08funky monkey
TTITLE8=09ain't no chains
TTITLE9=10broke down and broke
TTITLE10=11pretty mama
TTITLE11=12blues at night
EXTD=
EXTT0=
EXTT1=
EXTT2=
EXTT3=
EXTT4=
EXTT5=
EXTT6=
EXTT7=
EXTT8=
EXTT9=
EXTT10=
EXTT11=
PLAYORDER=
